<mxfile host="app.diagrams.net" modified="2020-10-12T05:15:30.747Z" agent="5.0 (Macintosh; Intel Mac OS X 10_15_3) AppleWebKit/537.36 (KHTML, like Gecko) Chrome/85.0.4183.121 Safari/537.36" etag="KZ-UwDEcKgiUlf0JhhNj" version="13.6.9" type="github">
  <diagram id="yj43YfuneHyhGvIBXG8J" name="Page-1">
    <mxGraphModel dx="946" dy="526" grid="1" gridSize="10" guides="1" tooltips="1" connect="1" arrows="1" fold="1" page="1" pageScale="1" pageWidth="827" pageHeight="1169" math="0" shadow="0">
      <root>
        <mxCell id="0" />
        <mxCell id="1" parent="0" />
        <mxCell id="EWD3hb7pjyzyVEc1kvs0-9" style="edgeStyle=orthogonalEdgeStyle;rounded=0;orthogonalLoop=1;jettySize=auto;html=1;exitX=0.5;exitY=1;exitDx=0;exitDy=0;entryX=0.5;entryY=0;entryDx=0;entryDy=0;" edge="1" parent="1" source="EWD3hb7pjyzyVEc1kvs0-1" target="EWD3hb7pjyzyVEc1kvs0-6">
          <mxGeometry relative="1" as="geometry" />
        </mxCell>
        <mxCell id="EWD3hb7pjyzyVEc1kvs0-1" value="mcc首页接口" style="rounded=1;whiteSpace=wrap;html=1;" vertex="1" parent="1">
          <mxGeometry x="200" y="40" width="120" height="40" as="geometry" />
        </mxCell>
        <mxCell id="EWD3hb7pjyzyVEc1kvs0-12" style="edgeStyle=orthogonalEdgeStyle;rounded=0;orthogonalLoop=1;jettySize=auto;html=1;exitX=0.5;exitY=1;exitDx=0;exitDy=0;" edge="1" parent="1" source="EWD3hb7pjyzyVEc1kvs0-2" target="EWD3hb7pjyzyVEc1kvs0-8">
          <mxGeometry relative="1" as="geometry" />
        </mxCell>
        <mxCell id="EWD3hb7pjyzyVEc1kvs0-2" value="getBalance" style="rounded=1;whiteSpace=wrap;html=1;" vertex="1" parent="1">
          <mxGeometry x="110" y="210" width="120" height="40" as="geometry" />
        </mxCell>
        <mxCell id="EWD3hb7pjyzyVEc1kvs0-14" style="edgeStyle=orthogonalEdgeStyle;rounded=0;orthogonalLoop=1;jettySize=auto;html=1;exitX=0.5;exitY=1;exitDx=0;exitDy=0;entryX=0.667;entryY=0;entryDx=0;entryDy=0;entryPerimeter=0;" edge="1" parent="1" source="EWD3hb7pjyzyVEc1kvs0-3" target="EWD3hb7pjyzyVEc1kvs0-8">
          <mxGeometry relative="1" as="geometry" />
        </mxCell>
        <mxCell id="EWD3hb7pjyzyVEc1kvs0-3" value="getReport" style="rounded=1;whiteSpace=wrap;html=1;" vertex="1" parent="1">
          <mxGeometry x="300" y="210" width="120" height="40" as="geometry" />
        </mxCell>
        <mxCell id="EWD3hb7pjyzyVEc1kvs0-10" style="edgeStyle=orthogonalEdgeStyle;rounded=0;orthogonalLoop=1;jettySize=auto;html=1;exitX=0.5;exitY=1;exitDx=0;exitDy=0;" edge="1" parent="1" source="EWD3hb7pjyzyVEc1kvs0-6" target="EWD3hb7pjyzyVEc1kvs0-2">
          <mxGeometry relative="1" as="geometry" />
        </mxCell>
        <mxCell id="EWD3hb7pjyzyVEc1kvs0-11" style="edgeStyle=orthogonalEdgeStyle;rounded=0;orthogonalLoop=1;jettySize=auto;html=1;exitX=0.5;exitY=1;exitDx=0;exitDy=0;entryX=0.5;entryY=0;entryDx=0;entryDy=0;" edge="1" parent="1" source="EWD3hb7pjyzyVEc1kvs0-6" target="EWD3hb7pjyzyVEc1kvs0-3">
          <mxGeometry relative="1" as="geometry" />
        </mxCell>
        <mxCell id="EWD3hb7pjyzyVEc1kvs0-6" value="App heart" style="rounded=1;whiteSpace=wrap;html=1;" vertex="1" parent="1">
          <mxGeometry x="200" y="120" width="120" height="40" as="geometry" />
        </mxCell>
        <mxCell id="EWD3hb7pjyzyVEc1kvs0-17" style="edgeStyle=orthogonalEdgeStyle;rounded=0;orthogonalLoop=1;jettySize=auto;html=1;exitX=0.25;exitY=1;exitDx=0;exitDy=0;entryX=0.5;entryY=0;entryDx=0;entryDy=0;" edge="1" parent="1" source="EWD3hb7pjyzyVEc1kvs0-8" target="EWD3hb7pjyzyVEc1kvs0-16">
          <mxGeometry relative="1" as="geometry" />
        </mxCell>
        <mxCell id="EWD3hb7pjyzyVEc1kvs0-18" style="edgeStyle=orthogonalEdgeStyle;rounded=0;orthogonalLoop=1;jettySize=auto;html=1;exitX=0.75;exitY=1;exitDx=0;exitDy=0;entryX=0.5;entryY=0;entryDx=0;entryDy=0;" edge="1" parent="1" source="EWD3hb7pjyzyVEc1kvs0-8" target="EWD3hb7pjyzyVEc1kvs0-15">
          <mxGeometry relative="1" as="geometry" />
        </mxCell>
        <mxCell id="EWD3hb7pjyzyVEc1kvs0-8" value="一站式" style="rounded=1;whiteSpace=wrap;html=1;" vertex="1" parent="1">
          <mxGeometry x="210" y="300" width="120" height="40" as="geometry" />
        </mxCell>
        <mxCell id="EWD3hb7pjyzyVEc1kvs0-15" value="数据报告平台" style="rounded=1;whiteSpace=wrap;html=1;" vertex="1" parent="1">
          <mxGeometry x="310" y="380" width="120" height="40" as="geometry" />
        </mxCell>
        <mxCell id="EWD3hb7pjyzyVEc1kvs0-16" value="财务平台" style="rounded=1;whiteSpace=wrap;html=1;" vertex="1" parent="1">
          <mxGeometry x="100" y="380" width="120" height="40" as="geometry" />
        </mxCell>
      </root>
    </mxGraphModel>
  </diagram>
</mxfile>
